<svg version="1" xmlns="http://www.w3.org/2000/svg" width="948" height="948" viewBox="0 0 711.000000 711.000000"><path d="M328.9 31.5c-.3.3-3.7.8-7.5 1-11.8.9-22.1 2.1-29.9 3.5-2.7.5-6.6 1.2-8.5 1.5-1.9.3-5.3 1-7.5 1.5-2.2.6-4.9 1.2-6 1.4-9.5 1.6-38.7 11-45.7 14.7-1 .5-2.3.9-2.9.9-1.7 0-27.3 12.5-37.4 18.3-12.9 7.3-32.1 20.2-39 26.2-1.3 1.1-4 3.3-6.1 5-19 15.1-44.9 43-58.4 63-1.9 2.7-4.2 5.9-5.2 6.9-.9 1-1.5 2.3-1.2 2.8.3.4.1.8-.3.8-.5 0-1.9 2-3.3 4.5s-2.7 4.5-3 4.5c-.3 0-1.1 1.5-1.9 3.2-.8 1.8-1.8 3.5-2.1 3.8-1.2.8-17.8 35.4-18.5 38.5-.2.5-1.6 4.4-3.3 8.5-2.9 7.5-5.8 16-6.7 19.6-.3 1-1.6 6.2-3 11.4s-2.8 10.8-3.1 12.5c-.3 1.6-1 5-1.5 7.5-1.7 7.5-2.7 14.2-4.6 31.5-1.4 13.1-.6 59.8 1.2 70.4.2 1.4.7 4.8 1.1 7.6.3 2.7.8 5.7.9 6.5.5 2.1 4.4 21 5.1 24 .2 1.4.8 3.4 1.1 4.5.4 1.1.8 2.2.8 2.5 4.5 18.7 19.6 55.3 30.5 73.5 1.6 2.7 3.3 5.7 3.7 6.5 1.4 3 12.6 19.5 13.5 19.8.4.2.8.8.8 1.3 0 .9 5.4 8.4 7 9.9.3.3 1.7 2.1 3 4 7.3 10.4 36.2 39.9 48.2 49 1.1.8 4.3 3.3 7.1 5.5 2.9 2.3 7.7 5.8 10.7 8 3 2.2 5.8 4.3 6.1 4.8.3.5.8.8 1 .6.3-.1 11.2 6.4 14.5 8.8 2.3 1.7 22.3 12.2 29.9 15.6 24 11 50.2 19.4 73.5 23.7 3 .6 6.4 1.2 7.6 1.4 1.2.2 4.5.7 7.4 1.1 2.9.4 6.2.9 7.4 1.1 11.9 2.4 66 2.4 78.2 0 1.2-.2 4.5-.7 7.4-1.1 2.9-.4 6.2-.9 7.4-1.1 2.6-.5 6.5-1.2 10.9-1.9 1.7-.3 4-.8 4.9-1.1.9-.3 2.5-.7 3.6-.9 5.8-1.1 25.9-6.9 27-7.7.6-.6 1.2-.8 1.2-.4s1.3 0 3-.9c1.6-.8 3.3-1.5 3.7-1.5 1.1 0 7.5-2.1 8.8-2.9.6-.3 1.2-.6 1.5-.7 3.6-.7 34.1-15.4 41.5-20 2.2-1.3 4.7-2.7 5.5-3.1.8-.3 6.9-4.3 13.5-8.7 30.3-20.4 58.4-46.8 78.2-73.6 2.6-3.6 5-6.7 5.3-7 1-.8 11.4-17 16.4-25.3 5.9-10 18.6-36 18.6-38.1 0-.9.4-1.6.9-1.6s1.1-1 1.4-2.3c.3-1.2 2.8-8.8 5.6-16.8 5-14.5 8.5-27.6 11.7-43.9 1.7-8.8 1.9-10.1 2.9-18.5.3-2.8.7-6.4 1-8 .5-3.6 1.7-29.3 1.7-35.5-.1-6.6-1.2-25.8-1.8-31-.9-7.6-1.2-10.3-1.9-14.5-.3-2.2-.8-5.4-1-7-.6-3.9-1.6-8.8-3.1-15.5-.3-1.4-.9-4.3-1.4-6.5-1-4.7-7.7-27.1-8.9-30-.5-1.1-1.4-3.6-2.1-5.5-.7-1.9-1.9-4.9-2.6-6.7-.8-1.7-1.4-3.4-1.4-3.7 0-.3-2.5-5.8-5.5-12.2-3-6.4-5.5-12-5.5-12.5s-.4-.9-1-.9c-.5 0-1-.9-1-2s-.4-2-1-2c-.5 0-1-.5-1-1.1 0-.6-2-4.5-4.5-8.6-2.5-4-4.5-7.8-4.5-8.3 0-.4-.3-1-.7-1.2-.7-.3-11.1-15.1-13.8-19.6-.5-1-1.2-1.9-1.5-2.2-.3-.3-2.4-2.8-4.6-5.7-14.5-18.4-38.8-42.7-54.8-54.8-2.8-2.1-5.5-4.2-6-4.7C531.2 91.2 506 75 504.2 75c-.7 0-1.2-.4-1.2-.9s-.8-1.1-1.7-1.4c-1-.3-5.4-2.5-9.8-4.9-4.4-2.4-10.9-5.6-14.5-7.2-3.6-1.6-8.5-3.8-11-4.8-2.4-1.1-4.9-2.1-5.5-2.3-.5-.1-1.7-.5-2.5-.8-5.4-2.3-25.5-8.8-31.5-10.2-1.6-.4-3.9-.9-5-1.2-1.1-.2-2.9-.6-4-.8-1.1-.2-4.7-1.1-8-1.9-3.3-.8-7.8-1.7-10-2-2.2-.3-5.1-.8-6.5-1.1-4.3-.9-12.8-1.8-26.8-3-2.9-.2-5.6-.7-6.1-1-.5-.3-1.2-.1-1.6.5-.4.6-1.1.8-1.6.5-1.3-.8-24.4-.9-25.7-.1-.6.3-1.2.1-1.4-.5-.2-.5-.6-.8-.9-.4z"/></svg>